<?xml version="1.0" encoding="utf-8"?>
<!-- Generator: Adobe Illustrator 21.0.0, SVG Export Plug-In . SVG Version: 6.00 Build 0)  -->
<svg version="1.1" id="Layer_1" xmlns="http://www.w3.org/2000/svg" xmlns:xlink="http://www.w3.org/1999/xlink" x="0px" y="0px"
	 width="800px" height="256px" viewBox="0 0 800 256" enable-background="new 0 0 800 256" xml:space="preserve">
<path fill="#E2E2E2" d="M0,0.8h800V256H0V0.8z"/>
<path fill="#666666" d="M800,256v-30.3L496.1,106.5H355.7L0,217.1V256H800L800,256z"/>
<path fill="#FFFFFF" d="M395.4,43.7l-164.9,99.8l1.1,6.7l5.9,2l2.7,3.8l26.2-8.4l-3.9,3.8l3,2.6l7.7-0.8l0.2,2.3l14.3-4.9h3.2
	l0.4,2.9l27.9-10.3l8,1.7l-2.4,4.3l10.1,2.8l1.3,7.2l12.3-1.6l-0.2,6.3l1.1,2.6l8-11.5l12.3-0.3l9.1,4.3l12.3-4l9.4-0.6l52.6-18.9
	l22-0.3l17.8,14.4l0.6-3.8l2-4.6l26.9,4l2-4.9l7.5,2.6l5.3-1.7l34,14.9l1.1-5.2l21.2,2.6l7.1-2.6l17.4,5.5v-3.8L433.9,37l-22.2,7.6
	l-3.5-3.5L395.4,43.7L395.4,43.7z"/>
<path fill="#AAAAAA" d="M179.7,256.2l5.3-7.7l6.7-6.3l5.2-7.1l7.2-6.6l10.2-0.7l8.1,5.3l5.2,8.7l4.9,2.3l28.3-3.2l2.1,2.6l5.5,2.4
	l4.4-0.6l8.8-6.7l15-2.6l2.7,3.4l8.2,1.7l6.7-8.5l3.1-7l1-8.8l-4.3-9.8l-8.5-11.4l-4.6-9.6l0.3-6.8l2.3-6.6l8.4-3.2h7.2l4.7,1.1
	l16.6,8.1l17.3,1.2l6.4,5.1l2.3,6.4l3.8,6.7l5.3,4.7l14,5.2l21.7,28.3l3.6,6.8l-1-5.7l15.4,5.5l9.6,6.2l0.5-0.8l-18.4-10.7L416,237
	l-2.8-0.9l-0.8-2.3l-7.2-7.3L390.9,204l-9.4-2.4l-5-4l-5.8-7.1l-2.7-7l3.1-6l3.3-2l5-0.6l8.4,2.4l20.9,13.7l4.2,1.4l2.9,3.3l3.6,2.3
	h3.1l8.1,7.3l2,0.3l1.2-0.7l2.3-2.5l0.9,0.7l47.2,9.4l9.2-1.9l4.9-2.3l7.1-1.6l4.5-8.8l2-2.3l12.3-5.7l5.6,0.4l-0.8-3l-6,0.7
	l-13.1,6.6l-5.3,7.9l-2,1.4l-1.4,0.3l-0.6-2.1l1.8-5.7v-2.9l-2-0.2l0.7,3.1l-2,8.3l-8.3,4.5l-15.8-2.3l-36.3-9.4l2.9-3l8.8-4.1
	l3.7,0.4l2.7-0.3l1.6-2.6l19.9-12.5l2.9-0.9l1.9,0.2l5.9,3l-0.2-2.4l-3.6-1.7l-6.5,0.6l4-3.6l1.8-7l3.8-9.4l2.9-2.3l5.3-1.9v-2.3
	l-6.3,3.8l-3.9,4.2l-4.8,13.3l-6.2,7.2l-4.8,1.7l-4.4,3.2l-7.7,2.7l-4.5-4.8l-0.4-2.6l0.5-2.6l-1-0.9l-0.4,2.3l0.6,4.3l3.5,4.5
	l0.5,1.1l-0.3,1.7l-1.6,0.6l-4.9-0.2l-7.9,3.1l-2.7,1.9l-1.8,2.2l-1.1,0.8l-4.1-2.3l1.3-2.5v-6.6l3.7-12.5l5.4-11l0.5-9.8l-1,2.4
	l-1,10.1l-5.5,7.5l-3.9,11.8v5.7l-0.6,2.6l-2.3,1.1l-10.1-3l2.1-2.5l4-14.2l8.5-9.6l-0.2-0.3l0.3-4.2l8.8-11.6l1.6-6.6v-1.6h-1
	l-2.3,5.6l-0.4,2.8l-8.5,11.3l0.6,2.6l-1.2,2.6l-6.2,6.9l-3.9,10.6l-0.3,3.1l-4.3,4.1L385,170.2l-10.8-0.9l-0.1-0.9l-0.1,1v-0.1
	l-0.6-1.9l-0.1-16.6l2.7-0.2l0.7,1.2l0.9,3.4l1.5,3.1l1,1.3l2.3,1.7l2,0.9l3.1,0.3l1.1,0.4v-1.7l-0.3-0.6l-3.6,0.3l-2.6-1.4
	l-3.9-5.8l-0.7-3.8l4.9-2l6.9-0.3l17.2,4.8h4.1l-3.8-2.1l-18.7-5h-5.8l-5.5,2.7h-4h0.2l5.3-15.8l1.1-1l1-2.3l0.6-4.6l2.9-4.4
	l4.9-4.6l7.3-4.6l12.3-4.4l-9.3,1.1l-8.8,4.6l2.9-11.6l-1.8-0.7l-2.1-0.3l-0.8-2.1l-0.3,3.1l3.4,1.8l0.2,1l-1.6,4.2v1.9l-0.6,3.1
	l-0.2,0.4l-1,0.7v-0.3l-5.3-2l2.8-4.9l2.4-10.4l0.1-0.2l-0.8,2.2l6.7-10.1l0.3-1.7l1.6-3.4l11.4-13.5l2.3-5.7l-1.8,1l-10.2,14
	l-3.5,3l-3.1,7.8l-6.6,10.8l-1.8,9l-0.9,1.7V110l-1-1.2l-0.3-1.2l-1-0.5h-3l-0.6-1.2l-1.5,0.7l2.3,2.1h1.6l2.6,2.6l0.4,0.9l-3.2,6.7
	l-5.8-2.9l-2.7-6.6l-1.5-1l1.1,5l-1.1,0.1l-2.7-1.6l-1.6-3.3l0.3,4l4,2.7l2.3,0.7l2.3,3.1l2.7,2.4l2.1,0.7l0.6,1.7l-0.1,3.1
	l-3.6,6.4l-2.9,11.9l-3.1,1.8l-14.7,0.6l-5.5,10.1l-3.2-3.2l-10.9-6l6.6-5.8l8.6,0.3l2.6,0.9l1.5,0.1l-3.5-5.1l-1.1-1.2l-3.5,2.1
	l-2.6-0.6l-2.3-2.4l1.5-9.2l-1.5-5.1l-0.9,11.3l-1,4l-8.3-7.2l1.1-3.1l-0.5-2.8l-3.8-10l0.5-4.3l-0.5-1.9v-6l2.6-5.1l5.5-0.3
	l-5.3-1.1l-1.8-2.1l-0.4-1.5l-1.6-3.3l1.2,9.5l-3.7,5.3l-4.6-2.4l-3.8-5.7l-2.1-2.1l0.9-5.7l4.2-9.1l7.8-14.4l0.5-4.3l-0.1-1.1
	l-1.2,0.1l-1,5.3l-2.9,7.6l-6.4,9.4l-1.1-0.1l-1.8-5.7l-1.5-2.6l-0.8,3.3l1.2,2.4l0.6,3.3v2.6l-1.1,1.1l-2.3-0.3l-2.2-3.9l-0.1-2.8
	l-0.8-2l-2.3,2.4l-1.2-0.7l-6.8-11.4l-0.5-1.9l1.5-2.7l2.7-3.1l4.2-9.4l0.7-8.8l-0.8,4.7l-1.7,3.1l-0.2,0.8v-0.1l-1.5-3L295,44
	l3.7,5.7l1,2.3l-1.6,4l-3.3,4l-2.7,1.4l-4.9-15.3l-0.3-5l-3.2-4.8l-1.5-4.3l11-3.1l5.1-0.3l7.5,4.7l3.9-0.9h4.6l5.1,1.6l25.3-0.9
	l8.7,8.7l-5.1-9.2l0.3-1.4l7.3-4.4l2.9-5.1l4.1-4.4l5.3,1.6l-0.5-2.2l25.6-12.6l2.6-3l-32.2,14.2l-4.4,3.1l-3.9,5.3l-8.5,5.6
	l-10.3,0.2l2.7-14.8l-1.8-2.3l0.4-2.4l-1,1.9l0.5,7.3l-1.8,7.3l-3.6,2.6l-2.9,0.9l-12.6-0.3l-3.1-1.1l-3.1-0.2v-2l7.9-7l-13.4,8.1
	l-4.6-3.4L301,20l0.3-5.6L297,2.5l2.6,12.3l-1.5,6.2l-3.1,4.1l-3.6,1.7l-9.1,1l-6.6-16.5l0.2,0.5l-1.5-8.4V1h-2.1l1.8,8.9l6.8,18
	l-0.5,0.3l-3.8-7.4l3,7.8l-13.5,5l-2.3,1.8l-3.6-0.6l-8.6-3.8l-0.3-2.4l-3-8.7l1.5,10.1l-0.3-0.2l-10.2-10.2l4.3,7.3l3.9,3.6
	l2.5,1.3l0.3,2.5l-0.4,4.7l-6.6-4.3l-9-0.7l-1.8,1.6l5.5-0.2l6.2,1.7l5.5,3.8l2,2.3l3,5.2l-0.2,2.3l-1.2,3.6l-3.5-2.4l-2.3,0.2
	l-1.8-0.5l-1.6-1l-1.5-2.1l-1.6,0.9l3.1,3.8l-0.4,2.6l-1,2.6l2-1.6l1.8-2.6l3.6-0.7l2.9,1.5l-4.8,6.1l1,8.4l-1.4,4.5l-6.8,13
	l-0.6,0.4l-4-6.7l-2.1-2.1l-4.8-8.5l-3.7-2.6l-2.6-6l-15.7-20.1l1,4.5L232,76.3l3.1,7.1l2.6,3.2l0.1,0.4l-8.7-3.7l-1.6-3.9l-1.2-1.4
	l-12.1-3.6l-13.4-7.5l-8.6-0.5l-1.7-3.6l-0.6-0.3l-1.4-3.9l-4.3-4.8l0.8,3.6l2.9,3.6l2.4,4.8l-0.3,0.8l-5.3,0.8l-5.1,2.2l-3.8,2.8
	l-11.1-2.7l-3.7,0.1h0.1l0.4,0.2h-1.2l0.7-0.2l-2.6-6.7l-2.7-4.1l-8.4-5.6l2-7.8l1.9-2.8l5.9-1.2l-0.7-0.9l-6-1.1l-2.9-6.6l1.2,8.2
	l-1.7,6.7l-4.4,4.1l-7.7-2.5l-4.6-0.1v2.8l10.7,6.4l9.4,2.2l5,4.8l2.7,5.1l0.1,0.5l-4.4,1.4l-4.1,2.8l-4.8,0.2l-13.4-12.4l9.2,12.4
	l0.8,1.7l-0.5,2.2l-2.9,3.2l-7.8-2V83l8.8,1.2l4.8-5.6l6.2-0.9l5-3.1l4.6-0.1l-0.2-0.5l1.2,0.9l-1-0.4l2.9,8.7l2,3.1l9.2,3.2
	l-1.6,2.7l-8.3,2.8l-6.6-0.4l-5.4,4.1l-5.2-1l-5.5,2.9l0.7,1.8l3.1-2.1l9.1,0.3l1.8-1.9l0.6-1.5l1.9-0.5l5.5,0.7l-3.1,4.7l-3.3,3.3
	l-12.7,5.7l-8.2,1.1l4.1,1.2l3.6-0.3l11.1-4.8l2.9-2.6l2.6,0.4l1.8-0.7v-2.9l2-2.2l1.4-3.7h4.5l1.6-1.5l5.5-3l0.2,0.1l3.1,5.3
	l3.2,2.3l21.8,8.4l4.4,3.1l3.1,0.9l8.9,10.9l0.5,2.5l3.8,2l1.9,1.9l2.4,6.4l0.4,3.6l1.6,5.6v3.6l-2.3,2.7l-5.1-0.6l-12.8-16.9
	l11.4,17.5l-15.6,0.9l-3.8-2.5l-12.1-3.4l-11.3,2l9.4-0.9l10.8,3.1l3.4,2.3l5.3,1.4l6.3-1.1l16.1,0.8l3.1-1.9l1.9-0.6l3.5,5.4l1,3.7
	l3.7,2.1l3.2,4.1l2.2,1.2l-2,6.4l-2.2,1.4l-1.6,0.3l-5.8,3l-3.8,0.8l-1.5-0.3l-3.8,0.9l-4.1,2l-3.6-0.3l-0.7-2.7l-1-1.9l-2.3-0.2
	l-1.4-1.4l-15.2,5.5l-1.9,1.2l-2.6,0.5l-2.2-0.5l-4.8,1.4l-4.4,0.2l-0.8,0.3l-1.6,3.1l-7.5,0.9l-6.3,2.7l-5.1,3.7l-3.6,1.5l-1.2,2.2
	l-0.5,6.5l-3.2,8.1l-1,1.6l0.2,5l-5.5,3.3l-7,19.9l-10.7,13.3H179L179.7,256.2L179.7,256.2z M419.6,192.4l5.2,1.4l8.3,5.2l-3.2,0.8
	l-2.9-0.5l-1.2-1.2l-1-1.6l-1.8-1.9l-4.7-1l-0.3-1.3L419.6,192.4z M382.7,113.5l4.1,0.6l1,0.8l-4.2,3.1l-2.7,3.3l-1.4,0.4
	L382.7,113.5L382.7,113.5z M364.9,150.1h6.1l1.1,0.6l0.7,5.5l-1,5.4l0.3,8.6l-4.2,0.1v-0.1l-0.8-2.3L366,166l-2.3-7.5l-0.2-5.2
	l-0.7-3L364.9,150.1L364.9,150.1z M351.8,161l2.3-5l5.5-4.7l0.9-0.4l1.3,1.9l0.5,8l4.1,8v1.4l-8.9,1.1l-0.2-0.9l-2.9-5.7l-2.5-3.3
	L351.8,161L351.8,161z M336,166.3l0.2-2.6l2-1.7l4.9,4.5l3.2,1.4l1.8,1.6l1.7,2.5l-7.4-2.1l-7.4-3.8L336,166.3L336,166.3z
	 M178.5,82.5l-1,3.9L165.5,79l-1.1-2.7l-0.7-0.1h0.6l0.1,0.2l8.2,0.9l6.9-1.4l8.1-3.9l5.8-0.6l9.5,3.6l-2.7,3.6l-2.6,2.1l-3.2,1
	l-1.6,0.1l-6.2-3.4l-1.4,0.1l2.3,2.6l-5.4,1.6l-1.2-2.9l-0.4,3.4l-0.3,1C180.3,84.2,178.5,82.5,178.5,82.5z M229.3,96.5l-4.6,6
	l-3.6,3l-2.3,1.2l-12-7L197,98l-6.6-6.2L180,87.5l5.3-2.5h2.2l5,1.1l2.6-0.7l3.3-1.9l3.1-3l3.1-5l16,8.6l6.9,8.4L229.3,96.5z
	 M329.7,164.8l-13-3.7l-2-3.2l1.2-3.1l2.6-0.7l8.8,1.3l2.4,6.4l0.3,3H329.7z M325.9,123.5l0.1,5.7l1.5,5.4l4.3,3l6,1.7l0.7,0.5v0.1
	l-1.4,3.4l-6.1,3l-8-3.4l-11.8,3l-1.1-1.3l-6-1.2l11.4-11.1l2-1.2l1.5-1.6l2.1-3.4l0.9-3.6l0.1-0.2L325.9,123.5L325.9,123.5z
	 M270.5,39.3l10.7-5.9l3.5,17.2l-15.3-9.8L270.5,39.3z M254.2,43.5l-1.5-3.8l-0.3-6.2l9.9,4.3l-5.1,7.1L254.2,43.5L254.2,43.5z
	 M233.6,110.5l3.2-6.9l11.1-4.8l4.4-22.7l4.6-3.9l-2.9-3.1l5.8-18.3l2.6-4.2l4.9-3.3l16.9,10.6l4.1,6.8l-1.2,1.4l-3.5-1.3l-2.4,1.6
	l-2.4-0.6l-1.1-2.1l-0.3-2.3l-2.1-1.7V58l-0.3,0.9l-7.8-4.1l-0.1,2.3l3.5,1l1.8,1.6l2.1,1l5.9,5.9l1.4-0.1l0.8-1.1l1.2-0.3l2.3,0.3
	l4.6,2.1l1.6,1.7l1.6,0.9l3.7,5.7l0.8,3.1l3.2,2.7l5.9,9.2l6.4,6.8l1.8,4.4l1.8,2.3l-0.6,3l-2.3,1.9l-6.4-1.7l-11.3,1.3l-0.2-0.6
	l-0.3-3.2l-1.5-4.9v-2.3V98v-5.1l-2.9-1.8l2,2.9l0.8,10.5l1.6,4.5l-3.5,0.3l1.2,1.7l2.4-0.6l5.1,8.2v-2.8l-2.4-2.8l-1.6-2.6l8.2-1
	l15.3,1.8l2,1.1l-0.5,5.6l-7.8,3l-3.1,0.4l-14.5-3.3h-3.8l-1.2,0.7l-4.7-10.8l-1-8.5l0.1-2.4l-5.4-7.6l-3.6-1.5l2.4,3.8l2.4,1.9
	l2.8,4.9l0.4,9.2l-1,0.3l-2.6-0.2l-1.5-1.1l-1.1-1.3l-7.3-4.7l-5-6.8l1.3,5.1l12.1,10.3l5.5,0.7l0.6,1l1.5,5.8l2,2.4l-6.2-1.4
	l-9.8,2.7l-9.9-6.5l-1.4,0.1l-0.6-0.3l-2.3-8.1l-1.6-3.2l-1-4.5v-5.8l-0.2-1.1l-1.7,9.8l0.2,1.9l0.8,1.7l-3.6,2.4l-2.1,0.7l4.6,0.2
	l2.9-0.8l1.3,2.8l0.8,4.6l-8.3,0.8l-19.2-3.9L233.6,110.5L233.6,110.5z M250.1,148.1l-18.6-27l-0.1-1.1l11.9-3.7l12,3.7l6.6-3.2
	l6.1,1.6l7.5,6.9l5.5-1.1l3.6-2.4l7.9,1l2.4-0.3l3.8-1.7l3.6,0.3l13.4,4.3l0.7,3.3l-1,1.6l-10.7,7.4l-2.1,4l-14.2,11.2l-1.6,3.8
	l-0.6,3.7l-3.4,0.3l-7,5.7l-9.7,4l-5.2-10.1L250.1,148.1L250.1,148.1z M235.6,202l5.3-1.8l5.2-0.6l6.1-4.3l3.2-0.9l7.6-6.3l6.6,7.8
	l8.7-10.6l2.4-5.4l9-6.7l2.4,7.9l-3.4,4.2l-1.8,4l1.4,4.3l0.9,10.3l2.3,3.3l0.3,3.3l-2.6,1.2l-0.9,1.6l-5.8,5.2l-22.2-9.1l-4.9-0.4
	l-2.4,2.4l-4.2,2.1l-1.4,2.4L235.6,202L235.6,202z"/>
<path fill="#FF7B7B" d="M317.1,0.8h20.8L337,4.9l1.1-0.1l3.1,5.2l-4.9,0.8l-2.1,5.6l-3.1-3.7l-4.2-1l1.2-4.5l-2.4-2.9l-3.6,3.8
	L321,2.2C321,2.2,317.1,0.8,317.1,0.8z M348.6,5L348,7.6l-0.3-0.1l-5.7,1.4l1.4,1.4l-2.1,1.3l2.1,1.6l-1.5,1.5l2.3,1.5l-1.1,0.4
	l1,0.3l4.4-1l4-3.9l-0.9-1.8l2.5-3.4l0.1,1l3.3,3.3l0.5-0.2l1.9,1.3l3.2-1.2l2.3,3.7l3-4.4l-0.3-0.9l2.9-2.5l-2.7-3.4l0.2-2.8h-23.4
	l4.9,3.2L348.6,5L348.6,5z M376,122.2l-1.1,0.1l0.3-5.3l-5.1,1.1l-0.3,0.7l-2.3-0.6l-0.7-1.2l2.1-4.2l-5-0.7l-2.7-5l-3,5.2l0.3,0.4
	l-3.7,2.2l4.5,4.5l1.2,5.9l3.6-3.8l2.4,2.9l-1.2,4.5l4.2,1l3.1,3.7l2.1-5.6l4.9-0.8L376,122.2L376,122.2z M404.8,150.2l-2.5-2.7
	l1.4-1.2l-1.4-4l-2.9,1.8l-4.2-0.9l1.6,4.6l-3.9,2.7l4.4,1.5l2.9,4.3l0.9-4.7L404.8,150.2L404.8,150.2z M176.6,18.2l0.9-5.5
	l-0.7-0.6l1.6-3.8L174.1,7l-3.6-3.9l-2.9,3.7l0.6,1l-1-0.4l-2.5-1.7l1.3-1l1.6-3.9h-9l3.4,6.3l-0.7,1.6l-0.2-1l-2.9-3.8l-1.8,2.2
	l-1.6-0.2l-1.2,3.5l3.6,3.4l-3.3-0.8l-3,6.3h6.2l-1,1.7l0.8,2.5h-0.3l-4.8,4.5l2,0.4l-1.4,2.3l2.7,0.2l-0.8,2.1h2.9l-0.9,1l1-0.3
	l3.7-3.4l2-5.5l0.1-0.1l-1.6-1.1l0.8-4.4l0.5,0.7l4.7,0.9l0.4-0.5h2.3l2.5-2.9L176.6,18.2z M282.3,87.2l0.9-5.5l-0.7-0.6l1.6-3.8
	l-4.2-1.3l-3.6-3.9l-2.9,3.7l0.6,1l-1-0.4l-2.5-1.7l1.3-1l1.6-3.9h-9l3.4,6.3l-0.7,1.6l-0.2-1l-2.9-3.8l-1.8,2.2l-1.6-0.2l-1.2,3.5
	l3.6,3.4l-3.3-0.8l-3,6.3h6.2l-1,1.7l0.8,2.5h-0.3l-4.8,4.5l2,0.4l-1.4,2.3l2.7,0.2L260,101h2.9l-0.9,1l1-0.3l3.7-3.4l2-5.5l0.1-0.1
	l-1.6-1.1l0.8-4.4l0.5,0.7l4.7,0.9l0.4-0.5h2.3l2.5-2.9L282.3,87.2z M356.6,128.3l-1.4,4.6l0.6-0.6l0.1,2.6h1.3v1.5l2.6-0.4
	l-0.6,0.8l3.6-4.2l0.7-5.1l0.6-2l-1.7,1.2L356.6,128.3L356.6,128.3z M345,54.4l-3.1-5.2l-1.1,0.1l0.3-5.3l-5.1,1.1l-0.3,0.7
	l-2.3-0.6l-0.7-1.2l2.1-4.2l-5-0.7l-2.7-5l-3,5.2l0.3,0.4l-3.7,2.2l4.5,4.5l1.2,5.9l3.6-3.8l2.4,2.9l-1.2,4.5l4.2,1l3.1,3.7l2.1-5.6
	L345,54.4L345,54.4z M509.7,153.9l-3.1-5.2l-1.1,0.1l0.3-5.3l-5.1,1.1l-0.3,0.7l-2.3-0.6l-0.7-1.2l2.1-4.2l-5-0.7l-2.7-5l-3,5.2
	l0.3,0.4l-3.7,2.2l4.5,4.5l1.2,5.9l3.6-3.8l2.4,2.9l-1.2,4.5l4.2,1l3.1,3.7l2.1-5.6L509.7,153.9L509.7,153.9z M348.6,102.9l-1.1,1.8
	h-1.1l-0.6,2.5l-2.5,0.3l-0.5,1.7l-2.2,2.2l4.1,6.2l6.8-1.2l1.4,0.2l0.8-10.9L348.6,102.9z M418.8,199.2l-1,0.8l-2.2-4.7l-4.3,3.9
	v0.8l-2.4,0.9l-1.2-0.6v-4.8l-5,2.4l-4.9-2.7l-0.4,6.2l0.4,0.2l-2.5,4l6.3,1.2l3.9,4.3l1.7-5.3l3.6,1.1v0.2l1,4.4l4.3-1.6l4.7,1.3
	l-0.6-6l4.2-3.5L418.8,199.2L418.8,199.2z M390,198.3l-6.2,0.4l-0.3,2.2l-1,0.6l0.6,2.5l-2.3,1.7l0.3,1.8l-1,3.1l6.8,2.9l5.9-5
	l1.4-0.6L390,198.3L390,198.3z M450.2,186.1l-0.7-0.6l1.6-3.8l-4.2-1.3l-3.6-3.9l-2.9,3.7l0.6,1l-1-0.4l-2.5-1.7l1.3-1.1l1.5-4.1
	l-1.8-3l0.1,0.9l-1.2-1.7l-0.6,1l-1.2-1.6l-1,1.6l-0.1-1.3l-3.1,4.2l3.5,6.5l-0.7,1.6l-0.2-1l-2.9-3.8l-1.8,2.2l-1.6-0.2l-1.2,3.5
	l3.6,3.4l-3.3-0.8l-3,6.3h6.2l-1,1.7l0.8,2.5l-0.3,0.1l-4.8,4.5l2,0.4l-1.4,2.3l2.7,0.2l-0.8,2.1h2.9l-0.9,1l1-0.3l3.7-3.4l2-5.5
	l0.1-0.1l-1.6-1.1l0.8-4.4l0.5,0.7l4.7,0.9l0.4-0.5h2.3l2.5-2.9l3.9,1.7L450.2,186.1L450.2,186.1z M409.4,210.9l-0.3-2l-1,2
	l-4.9,4.7l0.9,4.7l0.3-0.9l1.3,2.1l1.2-0.8l0.7,1.3l2.3-1.8l-0.3,1l1.5-5.6L409.4,210.9z M382.1,133.7l-1.1,0.4l1,0.3l4.4-1l4-3.9
	l-0.9-1.8l2.5-3.4l0.1,1l3.3,3.3l0.5-0.2l1.9,1.3l3.2-1.2l2.3,3.7l3-4.4l-0.3-0.9l2.9-2.5l-2.7-3.4l-1.1-5.4l-3.9,1.6v1.2l-0.6-0.9
	l-1.2-2.9l1.5-0.3l2.9-2.8l-0.1-3.7l-0.3,0.8l-0.3-2.2l-0.9,0.5l-0.3-2.1l-1.5,0.8l0.5-1.2l-4.2,2l-0.1,7.6l-1.3,1l0.3-0.9l-0.7-5
	l-2.4,0.9l-1.1-1l-2.4,2.4l1.4,5l-2.3-2.5l-5.1,3.9l4.9,3.3l-1.5,1l-0.5,2.6l-0.3-0.1l-5.7,1.4l1.4,1.4l-2.1,1.3l2.1,1.6l-1.5,1.5
	L382.1,133.7L382.1,133.7z M143.1,113.3l0.7-1.8l-3.2-2.6l-2,3.3l-4.3,1.7l3.6,3l-2.4,4.6l4.9-1.3l4.7,1.9l-1.4-4.5l2.9-3.6
	C146.6,114,143.1,113.3,143.1,113.3z M367.2,44.4v1.2l-0.6-0.9l-1.2-2.9l1.5-0.3l2.9-2.8l-0.1-3.7l-0.3,0.8l-0.3-2.2l-0.9,0.5
	l-0.3-2.1l-1,0.6v-0.5l0.1-0.4H367l-2.5-1.7l1.4-1.2l-1.4-4l-2.9,1.8l-4.2-0.9l1.6,4.6l-3.9,2.7l4.4,1.5l0.2,2l-1,0.8l-1.1-1
	l-2.4,2.4l1.4,5l-2.3-2.5l-5.1,3.9l4.9,3.3l-1.5,1L352,52l-0.3-0.1l-5.7,1.4l1.4,1.4l-2.1,1.3l2.1,1.6l-1.5,1.5l2.3,1.5l-1.1,0.4
	l1,0.3l4.4-1l4-3.9l-0.9-1.8l2.5-3.4l0.1,1l3.3,3.3l0.5-0.2l1.9,1.3l3.2-1.2l2.3,3.7l3-4.4l-0.3-0.9l2.9-2.5l-2.7-3.4l-1.1-5.4
	L367.2,44.4L367.2,44.4z M239.3,35.9v1.2l-0.6-0.9l-1.2-2.9L239,33l2.9-2.8l-0.1-3.7l-0.3,0.8l-0.3-2.2l-0.9,0.5l-0.3-2.1l-1,0.6
	v-0.5l0.1-0.4h-0.1l-2.5-1.7l1.4-1.2l-1.4-4l-2.9,1.8l-4.2-0.9l1.6,4.6l-3.9,2.7l4.4,1.5l0.2,2l-1,0.8l-1.1-1l-2.4,2.4l1.4,5
	l-2.3-2.5l-5.1,3.9l4.9,3.3l-1.5,1l-0.5,2.6l-0.3-0.1l-5.7,1.4l1.4,1.4l-2.1,1.3l2.1,1.6l-1.5,1.5l2.3,1.5l-1.1,0.4l1,0.3l4.4-1
	l4-3.9l-0.9-1.8l2.5-3.4l0.1,1l3.3,3.3l0.5-0.2l1.9,1.3l3.2-1.2l2.3,3.7l3-4.4l-0.3-0.9l2.9-2.5l-2.7-3.4l-1.1-5.4L239.3,35.9
	L239.3,35.9z M370.7,77.4l-2.5-2.7l1.4-1.2l-1.4-4l-2.9,1.8l-4.2-0.9l1.6,4.6l-3.9,2.7l4.4,1.5l2.9,4.3l0.9-4.7
	C366.8,78.8,370.7,77.4,370.7,77.4z M137,46.9l-0.3,1l1.5-5.6l-1.6-4.8l-0.3-2l-1,2l-4.9,4.7l0.9,4.7l0.3-0.9l1.3,2.1l1.2-0.8
	l0.8,1.4L137,46.9z M251.7,116.2l-1.1-5.4l-3.9,1.6v1.2l-0.6-0.9l-1.2-2.9l1.5-0.3l2.9-2.8l-0.1-3.7l-0.3,0.8l-0.3-2.2l-0.9,0.5
	l-0.3-2.1l-1.5,0.8l0.5-1.2l-4.2,2l-0.1,7.6l-1.3,1l0.3-0.9l-0.7-5l-2.4,0.9l-1.1-1l-2.4,2.4l1.4,5l-2.3-2.5l-5.1,3.9l0.2,0.8
	l-1,2.9l-4.3,1l-1.8-0.6l-1.1,0.1l0.3-5.3l-5.1,1.1l-0.3,0.7l-2.3-0.6l-0.7-1.2l2.1-4.2l-5-0.7l-2.7-5l-3,5.2l0.3,0.4l-3.7,2.2
	l4.5,4.5l1.2,5.9l3.6-3.8l2.4,2.9l-1.2,4.5l4.2,1l3.1,3.7l2.1-5.6l4.9-0.8l0.2-1l0.8,0.2l0.4,0.4l-1.6,4.1l1.2,0.6l-0.4,0.4l2.3,1.5
	l-1.1,0.4l1,0.3l4.4-1l0.5-0.8l1.8-0.8l0.7-1.5l1-0.6l0.1-0.1l-0.9-1.8l2.5-3.4l0.1,1l3.3,3.3l0.5-0.2l1.9,1.3l3.2-1.2l2.3,3.7
	l3-4.4l-0.3-0.9l2.9-2.5L251.7,116.2L251.7,116.2z M314.5,30l-1.1,1.8h-1.1l-0.6,2.5l-2.5,0.3l-0.5,1.7l-2.2,2.2l4.1,6.2l6.8-1.2
	l1.4,0.2l0.8-10.9C319.4,32.8,314.5,30,314.5,30z M341.4,120.3l-1.1,1.8h-1.1l-0.6,2.5l-2.5,0.3l-0.5,1.7l-2.2,2.2l4.1,6.2l6.8-1.2
	l1.4,0.2l0.8-10.9C346.3,123.2,341.4,120.3,341.4,120.3z M322.5,55.3l-1.4,4.6l0.6-0.6l0.1,2.6h1.3v1.5l2.6-0.4l-0.6,0.8l3.6-4.2
	l0.7-5.1l0.6-2l-1.7,1.2C328.3,53.7,322.5,55.3,322.5,55.3z M325,15.1l0.7-5.1l0.6-2l-1.7,1.2l-5.9,1.6l-1.4,4.6l0.6-0.6l0.1,2.6
	h1.3v1.5l2.6-0.4l-0.6,0.8L325,15.1z M182.5,32.1l0.7-1.8l-3.2-2.6l-2,3.3l-4.3,1.7l3.6,3l-2.4,4.6l4.9-1.3l4.7,1.9l-1.4-4.5
	l2.9-3.6C186.1,32.8,182.5,32.1,182.5,32.1z"/>
<polygon fill="#3C755E" points="874.3,164.1 874.3,164.1 874.3,164 "/>
<polygon fill="#3C755E" points="911.6,224 912,224 912,224 "/>
<polygon fill="#283831" points="809.8,160.2 809.8,160 809.8,159.9 "/>
<polygon fill="#283831" points="789.3,156.9 789.3,167.4 789.3,167.4 "/>
</svg>
