<svg width="12pt" height="17pt" viewBox="0 0 12 17" xmlns="http://www.w3.org/2000/svg"><g id="fontsvg1638057867730" stroke-linecap="round" fill-rule="evenodd" fill="#000000"><path d="M 10.08 0 L 10.52 0 L 11.76 0.08 L 11.8 5.6 L 11.8 8 Q 11.8 11.286 11.654 12.017 A 1.353 1.353 0 0 1 11.64 12.08 A 5.979 5.979 0 0 1 10.697 14.244 A 5.654 5.654 0 0 1 9.52 15.46 Q 7.88 16.72 5.84 16.72 A 5.665 5.665 0 0 1 1.687 15.012 A 6.942 6.942 0 0 1 1.52 14.84 Q 0.64 13.92 0.32 13 A 4.817 4.817 0 0 1 0.138 12.292 Q 0.001 11.547 0 10.528 A 15.966 15.966 0 0 1 0 10.52 Q 0 9.336 0.055 9.082 A 0.419 0.419 0 0 1 0.06 9.06 A 0.27 0.27 0 0 1 0.247 8.867 Q 0.328 8.84 0.44 8.84 Q 0.76 8.84 0.84 9.04 Q 0.915 9.228 0.99 10.299 A 40.309 40.309 0 0 1 1 10.44 A 13.396 13.396 0 0 0 1.061 11.174 Q 1.142 11.897 1.296 12.377 A 3.138 3.138 0 0 0 1.36 12.56 Q 1.587 13.143 2.103 13.779 A 7.709 7.709 0 0 0 2.36 14.08 A 4.91 4.91 0 0 0 3.882 15.219 A 4.553 4.553 0 0 0 5.84 15.64 A 4.753 4.753 0 0 0 8.112 15.053 A 5.753 5.753 0 0 0 8.38 14.9 A 4.972 4.972 0 0 0 10.193 12.968 A 5.968 5.968 0 0 0 10.28 12.8 A 3 3 0 0 0 10.532 12.142 Q 10.611 11.837 10.646 11.485 A 5.357 5.357 0 0 0 10.66 11.32 Q 10.72 10.44 10.76 6.52 L 10.8 1.04 L 9.96 1.04 A 3.668 3.668 0 0 1 9.607 1.025 Q 9.262 0.991 9.081 0.885 A 0.362 0.362 0 0 1 8.88 0.56 A 0.476 0.476 0 0 1 8.986 0.261 A 0.654 0.654 0 0 1 9.04 0.2 Q 9.217 0.023 9.892 0.003 A 6.15 6.15 0 0 1 10.08 0 Z M 9.84 7.88 L 9.84 12.16 L 9.32 13 Q 8.84 13.72 8 14.28 Q 7.235 14.754 6.105 14.796 A 6.019 6.019 0 0 1 5.88 14.8 Q 4.6 14.8 3.76 14.28 Q 1.96 13.12 1.84 10.84 L 1.84 10.2 A 3.7 3.7 0 0 1 1.848 9.939 Q 1.876 9.548 1.996 9.417 A 0.199 0.199 0 0 1 2.08 9.36 A 0.352 0.352 0 0 1 2.164 9.331 Q 2.216 9.32 2.28 9.32 A 0.46 0.46 0 0 1 2.699 9.589 Q 2.826 9.819 2.864 10.245 A 4.507 4.507 0 0 1 2.88 10.64 A 3.792 3.792 0 0 0 3.008 11.651 A 2.836 2.836 0 0 0 3.72 12.9 A 2.816 2.816 0 0 0 5.448 13.732 A 3.896 3.896 0 0 0 5.92 13.76 A 2.96 2.96 0 0 0 6.759 13.646 A 2.443 2.443 0 0 0 7.56 13.24 A 4.694 4.694 0 0 0 8.063 12.763 Q 8.3 12.5 8.449 12.234 A 2.015 2.015 0 0 0 8.66 11.7 A 3.94 3.94 0 0 0 8.728 11.263 Q 8.836 10.283 8.84 7.907 A 109.994 109.994 0 0 0 8.84 7.72 Q 8.84 4.018 9.073 3.728 A 0.102 0.102 0 0 1 9.08 3.72 A 0.654 0.654 0 0 1 9.551 3.52 A 0.779 0.779 0 0 1 9.56 3.52 Q 9.84 3.56 9.84 7.88 Z" vector-effect="non-scaling-stroke"/></g></svg>